<mxfile>
    <diagram id="QVJiLsjtFVQGjoEcNKkN" name="Page-1">
        <mxGraphModel dx="570" dy="285" grid="1" gridSize="10" guides="1" tooltips="1" connect="1" arrows="1" fold="1" page="1" pageScale="1" pageWidth="827" pageHeight="1169" math="0" shadow="0">
            <root>
                <mxCell id="0"/>
                <mxCell id="1" parent="0"/>
                <mxCell id="WUQUSZLmtvmsqpihZWAL-1" value="Gazebo Plugin" style="rounded=0;whiteSpace=wrap;html=1;fillColor=#dae8fc;strokeColor=#6c8ebf;fontSize=11;" parent="1" vertex="1">
                    <mxGeometry x="600" y="40" width="120" height="80" as="geometry"/>
                </mxCell>
                <mxCell id="WUQUSZLmtvmsqpihZWAL-3" style="edgeStyle=orthogonalEdgeStyle;rounded=0;orthogonalLoop=1;jettySize=auto;html=1;exitX=0.995;exitY=0.149;exitDx=0;exitDy=0;entryX=0.007;entryY=0.149;entryDx=0;entryDy=0;entryPerimeter=0;exitPerimeter=0;" parent="1" source="WUQUSZLmtvmsqpihZWAL-2" target="WUQUSZLmtvmsqpihZWAL-1" edge="1">
                    <mxGeometry relative="1" as="geometry"/>
                </mxCell>
                <mxCell id="WUQUSZLmtvmsqpihZWAL-4" value="~/power&lt;br style=&quot;font-size: 8px&quot;&gt;ignition::msgs::Boolean" style="edgeLabel;html=1;align=center;verticalAlign=middle;resizable=0;points=[];fontSize=8;" parent="WUQUSZLmtvmsqpihZWAL-3" vertex="1" connectable="0">
                    <mxGeometry x="0.1987" y="-1" relative="1" as="geometry">
                        <mxPoint x="-16" y="-3" as="offset"/>
                    </mxGeometry>
                </mxCell>
                <mxCell id="WUQUSZLmtvmsqpihZWAL-5" style="edgeStyle=orthogonalEdgeStyle;rounded=0;orthogonalLoop=1;jettySize=auto;html=1;exitX=1;exitY=0.5;exitDx=0;exitDy=0;" parent="1" source="WUQUSZLmtvmsqpihZWAL-2" target="WUQUSZLmtvmsqpihZWAL-1" edge="1">
                    <mxGeometry relative="1" as="geometry"/>
                </mxCell>
                <mxCell id="WUQUSZLmtvmsqpihZWAL-6" value="~/release&lt;br style=&quot;font-size: 8px&quot;&gt;ignition::msgs::Boolean" style="edgeLabel;html=1;align=center;verticalAlign=middle;resizable=0;points=[];fontSize=8;" parent="WUQUSZLmtvmsqpihZWAL-5" vertex="1" connectable="0">
                    <mxGeometry x="-0.2321" y="1" relative="1" as="geometry">
                        <mxPoint x="17" y="1" as="offset"/>
                    </mxGeometry>
                </mxCell>
                <mxCell id="WUQUSZLmtvmsqpihZWAL-7" style="edgeStyle=orthogonalEdgeStyle;rounded=0;orthogonalLoop=1;jettySize=auto;html=1;exitX=-0.013;exitY=0.846;exitDx=0;exitDy=0;entryX=1.023;entryY=0.852;entryDx=0;entryDy=0;entryPerimeter=0;exitPerimeter=0;" parent="1" source="WUQUSZLmtvmsqpihZWAL-1" target="WUQUSZLmtvmsqpihZWAL-2" edge="1">
                    <mxGeometry relative="1" as="geometry"/>
                </mxCell>
                <mxCell id="WUQUSZLmtvmsqpihZWAL-8" value="~/sensor&lt;br style=&quot;font-size: 8px;&quot;&gt;ignition::msgs::Boolean" style="edgeLabel;html=1;align=center;verticalAlign=middle;resizable=0;points=[];fontSize=8;" parent="WUQUSZLmtvmsqpihZWAL-7" vertex="1" connectable="0">
                    <mxGeometry x="0.0766" relative="1" as="geometry">
                        <mxPoint x="5" as="offset"/>
                    </mxGeometry>
                </mxCell>
                <mxCell id="WUQUSZLmtvmsqpihZWAL-2" value="Hardware Interface" style="rounded=0;whiteSpace=wrap;html=1;fillColor=#e1d5e7;strokeColor=#9673a6;fontSize=11;" parent="1" vertex="1">
                    <mxGeometry x="320" y="40" width="120" height="80" as="geometry"/>
                </mxCell>
                <mxCell id="3" style="edgeStyle=orthogonalEdgeStyle;rounded=0;orthogonalLoop=1;jettySize=auto;html=1;exitX=1.002;exitY=0.151;exitDx=0;exitDy=0;entryX=0.002;entryY=0.149;entryDx=0;entryDy=0;exitPerimeter=0;entryPerimeter=0;startArrow=classic;startFill=1;" parent="1" source="2" target="WUQUSZLmtvmsqpihZWAL-2" edge="1">
                    <mxGeometry relative="1" as="geometry"/>
                </mxCell>
                <mxCell id="6" value="power" style="edgeLabel;html=1;align=center;verticalAlign=middle;resizable=0;points=[];fontSize=8;" parent="3" vertex="1" connectable="0">
                    <mxGeometry x="-0.2199" y="1" relative="1" as="geometry">
                        <mxPoint x="8" as="offset"/>
                    </mxGeometry>
                </mxCell>
                <mxCell id="4" style="edgeStyle=orthogonalEdgeStyle;rounded=0;orthogonalLoop=1;jettySize=auto;html=1;exitX=1;exitY=0.5;exitDx=0;exitDy=0;entryX=0;entryY=0.5;entryDx=0;entryDy=0;startArrow=classic;startFill=1;" parent="1" source="2" target="WUQUSZLmtvmsqpihZWAL-2" edge="1">
                    <mxGeometry relative="1" as="geometry"/>
                </mxCell>
                <mxCell id="7" value="release" style="edgeLabel;html=1;align=center;verticalAlign=middle;resizable=0;points=[];fontSize=8;" parent="4" vertex="1" connectable="0">
                    <mxGeometry x="-0.0804" y="1" relative="1" as="geometry">
                        <mxPoint x="3" y="1" as="offset"/>
                    </mxGeometry>
                </mxCell>
                <mxCell id="5" style="edgeStyle=orthogonalEdgeStyle;rounded=0;orthogonalLoop=1;jettySize=auto;html=1;exitX=0.004;exitY=0.853;exitDx=0;exitDy=0;entryX=1.005;entryY=0.849;entryDx=0;entryDy=0;entryPerimeter=0;exitPerimeter=0;startArrow=classic;startFill=1;" parent="1" source="WUQUSZLmtvmsqpihZWAL-2" target="2" edge="1">
                    <mxGeometry relative="1" as="geometry"/>
                </mxCell>
                <mxCell id="8" value="latch" style="edgeLabel;html=1;align=center;verticalAlign=middle;resizable=0;points=[];fontSize=8;" parent="5" vertex="1" connectable="0">
                    <mxGeometry x="-0.1459" y="-1" relative="1" as="geometry">
                        <mxPoint x="-6" as="offset"/>
                    </mxGeometry>
                </mxCell>
                <mxCell id="2" value="Ressource Manager" style="rounded=0;whiteSpace=wrap;html=1;fillColor=#ffe6cc;strokeColor=#d79b00;fontSize=11;" parent="1" vertex="1">
                    <mxGeometry x="120" y="40" width="120" height="80" as="geometry"/>
                </mxCell>
            </root>
        </mxGraphModel>
    </diagram>
</mxfile>